<mxfile host="app.diagrams.net" modified="2023-09-12T18:22:05.460Z" agent="Mozilla/5.0 (Windows NT 10.0; Win64; x64) AppleWebKit/537.36 (KHTML, like Gecko) Chrome/117.0.0.0 Safari/537.36" etag="15PguDxaSJVpkTbZue-T" version="21.7.4" type="device">
  <diagram name="Página-1" id="doivBMXQQS6I5Ad8pzMK">
    <mxGraphModel dx="880" dy="1639" grid="1" gridSize="10" guides="1" tooltips="1" connect="1" arrows="1" fold="1" page="1" pageScale="1" pageWidth="827" pageHeight="1169" math="0" shadow="0">
      <root>
        <mxCell id="0" />
        <mxCell id="1" parent="0" />
        <mxCell id="VEyRxlcaVztQlAPD5JIy-32" style="edgeStyle=orthogonalEdgeStyle;rounded=0;orthogonalLoop=1;jettySize=auto;html=1;" edge="1" parent="1" source="VEyRxlcaVztQlAPD5JIy-1" target="VEyRxlcaVztQlAPD5JIy-23">
          <mxGeometry relative="1" as="geometry">
            <Array as="points">
              <mxPoint x="150" y="110" />
              <mxPoint x="150" y="60" />
            </Array>
          </mxGeometry>
        </mxCell>
        <mxCell id="VEyRxlcaVztQlAPD5JIy-33" style="edgeStyle=orthogonalEdgeStyle;rounded=0;orthogonalLoop=1;jettySize=auto;html=1;entryX=-0.017;entryY=0.363;entryDx=0;entryDy=0;entryPerimeter=0;" edge="1" parent="1" source="VEyRxlcaVztQlAPD5JIy-1" target="VEyRxlcaVztQlAPD5JIy-27">
          <mxGeometry relative="1" as="geometry">
            <Array as="points">
              <mxPoint x="150" y="110" />
              <mxPoint x="150" y="139" />
            </Array>
          </mxGeometry>
        </mxCell>
        <mxCell id="VEyRxlcaVztQlAPD5JIy-1" value="Leitor 1&lt;br&gt;" style="shape=umlActor;verticalLabelPosition=bottom;verticalAlign=top;html=1;outlineConnect=0;" vertex="1" parent="1">
          <mxGeometry x="50" y="80" width="30" height="60" as="geometry" />
        </mxCell>
        <mxCell id="VEyRxlcaVztQlAPD5JIy-34" style="edgeStyle=orthogonalEdgeStyle;rounded=0;orthogonalLoop=1;jettySize=auto;html=1;entryX=0.033;entryY=0.663;entryDx=0;entryDy=0;entryPerimeter=0;" edge="1" parent="1" source="VEyRxlcaVztQlAPD5JIy-2" target="VEyRxlcaVztQlAPD5JIy-23">
          <mxGeometry relative="1" as="geometry">
            <Array as="points">
              <mxPoint x="65" y="160" />
              <mxPoint x="224" y="160" />
            </Array>
          </mxGeometry>
        </mxCell>
        <mxCell id="VEyRxlcaVztQlAPD5JIy-35" style="edgeStyle=orthogonalEdgeStyle;rounded=0;orthogonalLoop=1;jettySize=auto;html=1;" edge="1" parent="1" source="VEyRxlcaVztQlAPD5JIy-2" target="VEyRxlcaVztQlAPD5JIy-27">
          <mxGeometry relative="1" as="geometry">
            <Array as="points">
              <mxPoint x="65" y="160" />
            </Array>
          </mxGeometry>
        </mxCell>
        <mxCell id="VEyRxlcaVztQlAPD5JIy-37" style="edgeStyle=orthogonalEdgeStyle;rounded=0;orthogonalLoop=1;jettySize=auto;html=1;entryX=0.033;entryY=0.363;entryDx=0;entryDy=0;entryPerimeter=0;" edge="1" parent="1" source="VEyRxlcaVztQlAPD5JIy-2" target="VEyRxlcaVztQlAPD5JIy-25">
          <mxGeometry relative="1" as="geometry">
            <Array as="points">
              <mxPoint x="235" y="240" />
            </Array>
          </mxGeometry>
        </mxCell>
        <mxCell id="VEyRxlcaVztQlAPD5JIy-38" style="edgeStyle=orthogonalEdgeStyle;rounded=0;orthogonalLoop=1;jettySize=auto;html=1;entryX=0.5;entryY=1;entryDx=0;entryDy=0;" edge="1" parent="1" source="VEyRxlcaVztQlAPD5JIy-2" target="VEyRxlcaVztQlAPD5JIy-29">
          <mxGeometry relative="1" as="geometry" />
        </mxCell>
        <mxCell id="VEyRxlcaVztQlAPD5JIy-39" style="edgeStyle=orthogonalEdgeStyle;rounded=0;orthogonalLoop=1;jettySize=auto;html=1;entryX=0.5;entryY=1;entryDx=0;entryDy=0;" edge="1" parent="1" source="VEyRxlcaVztQlAPD5JIy-2" target="VEyRxlcaVztQlAPD5JIy-31">
          <mxGeometry relative="1" as="geometry">
            <Array as="points">
              <mxPoint x="65" y="330" />
              <mxPoint x="790" y="330" />
            </Array>
          </mxGeometry>
        </mxCell>
        <mxCell id="VEyRxlcaVztQlAPD5JIy-40" style="edgeStyle=orthogonalEdgeStyle;rounded=0;orthogonalLoop=1;jettySize=auto;html=1;" edge="1" parent="1" source="VEyRxlcaVztQlAPD5JIy-2" target="VEyRxlcaVztQlAPD5JIy-30">
          <mxGeometry relative="1" as="geometry">
            <Array as="points">
              <mxPoint x="65" y="200" />
            </Array>
          </mxGeometry>
        </mxCell>
        <mxCell id="VEyRxlcaVztQlAPD5JIy-42" style="edgeStyle=orthogonalEdgeStyle;rounded=0;orthogonalLoop=1;jettySize=auto;html=1;" edge="1" parent="1" source="VEyRxlcaVztQlAPD5JIy-2" target="VEyRxlcaVztQlAPD5JIy-28">
          <mxGeometry relative="1" as="geometry">
            <Array as="points">
              <mxPoint x="65" y="200" />
            </Array>
          </mxGeometry>
        </mxCell>
        <mxCell id="VEyRxlcaVztQlAPD5JIy-2" value="Bibliotecário&lt;br&gt;" style="shape=umlActor;verticalLabelPosition=bottom;verticalAlign=top;html=1;outlineConnect=0;" vertex="1" parent="1">
          <mxGeometry x="50" y="210" width="30" height="60" as="geometry" />
        </mxCell>
        <mxCell id="VEyRxlcaVztQlAPD5JIy-23" value="Registro" style="ellipse;whiteSpace=wrap;html=1;" vertex="1" parent="1">
          <mxGeometry x="390" y="-10" width="120" height="80" as="geometry" />
        </mxCell>
        <mxCell id="VEyRxlcaVztQlAPD5JIy-25" value="Emprestimo" style="ellipse;whiteSpace=wrap;html=1;" vertex="1" parent="1">
          <mxGeometry x="390" y="210" width="120" height="80" as="geometry" />
        </mxCell>
        <mxCell id="VEyRxlcaVztQlAPD5JIy-27" value="Devolução" style="ellipse;whiteSpace=wrap;html=1;" vertex="1" parent="1">
          <mxGeometry x="390" y="110" width="120" height="80" as="geometry" />
        </mxCell>
        <mxCell id="VEyRxlcaVztQlAPD5JIy-28" value="Livros disponíveis" style="ellipse;whiteSpace=wrap;html=1;" vertex="1" parent="1">
          <mxGeometry x="720" y="110" width="120" height="80" as="geometry" />
        </mxCell>
        <mxCell id="VEyRxlcaVztQlAPD5JIy-29" value="Leitores Registrados" style="ellipse;whiteSpace=wrap;html=1;" vertex="1" parent="1">
          <mxGeometry x="540" y="210" width="120" height="80" as="geometry" />
        </mxCell>
        <mxCell id="VEyRxlcaVztQlAPD5JIy-30" value="Livros emprestados" style="ellipse;whiteSpace=wrap;html=1;" vertex="1" parent="1">
          <mxGeometry x="540" y="110" width="120" height="80" as="geometry" />
        </mxCell>
        <mxCell id="VEyRxlcaVztQlAPD5JIy-31" value="Histórico" style="ellipse;whiteSpace=wrap;html=1;" vertex="1" parent="1">
          <mxGeometry x="730" y="220" width="120" height="80" as="geometry" />
        </mxCell>
        <mxCell id="VEyRxlcaVztQlAPD5JIy-36" style="edgeStyle=orthogonalEdgeStyle;rounded=0;orthogonalLoop=1;jettySize=auto;html=1;exitX=0;exitY=0.3333333333333333;exitDx=0;exitDy=0;exitPerimeter=0;entryX=0.5;entryY=0.5;entryDx=0;entryDy=0;entryPerimeter=0;" edge="1" parent="1" source="VEyRxlcaVztQlAPD5JIy-2" target="VEyRxlcaVztQlAPD5JIy-2">
          <mxGeometry relative="1" as="geometry" />
        </mxCell>
        <mxCell id="VEyRxlcaVztQlAPD5JIy-43" value="" style="shape=waypoint;sketch=0;fillStyle=solid;size=6;pointerEvents=1;points=[];fillColor=none;resizable=0;rotatable=0;perimeter=centerPerimeter;snapToPoint=1;" vertex="1" parent="1">
          <mxGeometry x="450" y="180" width="20" height="20" as="geometry" />
        </mxCell>
        <mxCell id="VEyRxlcaVztQlAPD5JIy-44" value="" style="shape=waypoint;sketch=0;fillStyle=solid;size=6;pointerEvents=1;points=[];fillColor=none;resizable=0;rotatable=0;perimeter=centerPerimeter;snapToPoint=1;" vertex="1" parent="1">
          <mxGeometry x="450" y="180" width="20" height="20" as="geometry" />
        </mxCell>
      </root>
    </mxGraphModel>
  </diagram>
</mxfile>
